<?xml version="1.0" encoding="UTF-8" standalone="no"?>
<svg
   xmlns:dc="http://purl.org/dc/elements/1.1/"
   xmlns:cc="http://creativecommons.org/ns#"
   xmlns:rdf="http://www.w3.org/1999/02/22-rdf-syntax-ns#"
   xmlns:svg="http://www.w3.org/2000/svg"
   xmlns="http://www.w3.org/2000/svg"
   xmlns:sodipodi="http://sodipodi.sourceforge.net/DTD/sodipodi-0.dtd"
   xmlns:inkscape="http://www.inkscape.org/namespaces/inkscape"
   viewBox="0 0 841.9 595.3"
   version="1.1"
   id="svg3723"
   sodipodi:docname="logo.svg"
   inkscape:version="0.92.2 (5c3e80d, 2017-08-06)">
  <metadata
     id="metadata3729">
    <rdf:RDF>
      <cc:Work
         rdf:about="">
        <dc:format>image/svg+xml</dc:format>
        <dc:type
           rdf:resource="http://purl.org/dc/dcmitype/StillImage" />
      </cc:Work>
    </rdf:RDF>
  </metadata>
  <defs
     id="defs3727" />
  <sodipodi:namedview
     pagecolor="#ffffff"
     bordercolor="#666666"
     borderopacity="1"
     objecttolerance="10"
     gridtolerance="10"
     guidetolerance="10"
     inkscape:pageopacity="0"
     inkscape:pageshadow="0"
     inkscape:window-width="2880"
     inkscape:window-height="1526"
     id="namedview3725"
     showgrid="false"
     inkscape:zoom="1.2817067"
     inkscape:cx="180.64543"
     inkscape:cy="297.64999"
     inkscape:window-x="2869"
     inkscape:window-y="-11"
     inkscape:window-maximized="1"
     inkscape:current-layer="svg3723" />
  <path
     style="fill:#922610;fill-opacity:1;stroke-width:0.78020966"
     d="m 393.64267,477.85679 c -14.56654,-1.29823 -43.17037,-6.82036 -53.87115,-10.40013 -27.16043,-9.08605 -47.09033,-26.16224 -54.94069,-47.07385 -6.2149,-16.55512 -5.4277,-39.31186 1.90169,-54.97525 13.85491,-29.60885 50.88484,-50.76937 97.35968,-55.63557 11.70551,-1.22563 40.38976,-0.55141 49.54539,1.16458 21.67454,4.06231 37.33546,12.1491 45.81861,23.65922 4.25586,5.77445 7.59797,13.23948 8.33512,18.61759 0.71766,5.23597 1.55469,4.75725 1.26137,-0.72142 -1.00847,-18.83652 -6.22329,-32.24594 -16.60884,-42.70811 -12.00988,-12.09847 -28.13631,-18.53252 -52.83189,-21.07864 -12.99468,-1.33975 -40.47718,-0.5332 -54.44694,1.59791 -12.73407,1.9426 -30.83523,5.23045 -32.66795,5.93373 -1.17035,0.44911 -1.27117,-6.85158 -1.27117,-92.05052 v -92.53832 h 100.25694 100.25695 v 20.67555 20.67556 h -78.80118 -78.80118 v 48.45495 48.45495 l 3.31589,-0.45406 c 7.9281,-1.08563 48.0511,-1.46164 57.17463,-0.5358 25.04804,2.54182 41.87804,8.00319 58.0991,18.85328 20.8072,13.91771 34.24548,35.30339 39.16947,62.33428 2.009,11.02866 2.42898,38.05658 0.73955,47.59279 -7.52622,42.48245 -27.82936,71.71814 -61.36253,88.35955 -10.21375,5.06874 -19.07699,7.90502 -32.755,10.48175 -6.07018,1.14353 -36.72451,2.04246 -44.87587,1.31598 z m 28.18619,-41.21123 c 9.20386,-0.58065 20.74642,-3.69589 29.15922,-7.86983 20.7308,-10.28539 33.41911,-29.48582 37.16089,-56.23325 0.50525,-3.61176 0.73706,-6.74841 0.51512,-6.97036 -0.52568,-0.52568 -9.11972,3.185 -14.92983,6.4463 l -4.56115,2.56025 -47.7129,0.002 c -26.24208,7.5e-4 -58.55937,0.23403 -71.8162,0.51839 l -24.10331,0.51704 0.47287,8.26465 c 0.64807,11.32681 3.00893,21.73554 6.75899,29.79951 2.37788,5.1133 34.51032,17.80238 54.23833,21.41868 7.00678,1.28439 22.44154,2.57109 26.13703,2.17887 1.07278,-0.11386 4.97921,-0.39809 8.68094,-0.63162 z m -37.1586,-74.55045 c 26.62236,-0.83261 58.35275,-2.32473 58.8038,-2.76525 0.15843,-0.15474 -0.27869,-2.79103 -0.9714,-5.85842 -4.33828,-19.21048 -20.18744,-29.82216 -46.21101,-30.94019 -24.95944,-1.07232 -45.01452,6.56624 -57.30972,21.82807 -2.98502,3.70526 -10.09666,16.41876 -10.09666,18.04983 0,0.70028 28.4785,0.53995 55.78499,-0.31404 z"
     id="path9564"
     inkscape:connector-curvature="0" />
</svg>
